<?xml version="1.0" standalone="no"?>
<!DOCTYPE svg PUBLIC "-//W3C//DTD SVG 20010904//EN"
 "http://www.w3.org/TR/2001/REC-SVG-20010904/DTD/svg10.dtd">
<svg version="1.0" xmlns="http://www.w3.org/2000/svg"
 width="300.000000pt" height="300.000000pt" viewBox="0 0 300.000000 300.000000"
 preserveAspectRatio="xMidYMid meet">
<metadata>
Created by potrace 1.14, written by Peter Selinger 2001-2017
</metadata>
<g transform="translate(0.000000,300.000000) scale(0.100000,-0.100000)"
fill="#000000" stroke="none">
<path d="M0 1500 l0 -1500 1500 0 1500 0 0 1500 0 1500 -1500 0 -1500 0 0
-1500z m2091 728 c51 -15 114 -69 142 -122 22 -41 22 -41 25 -703 l3 -663
-649 0 c-722 0 -707 -1 -777 67 -77 75 -75 50 -75 681 0 609 -1 594 55 668 13
18 48 44 77 58 l52 26 554 0 c392 0 566 -3 593 -12z"/>
<path d="M937 2166 c-50 -18 -76 -42 -98 -91 -17 -37 -19 -78 -19 -584 0 -533
0 -546 21 -588 14 -29 35 -52 63 -68 l43 -25 464 0 464 0 158 158 157 157 0
463 c0 507 1 494 -60 545 -17 15 -47 31 -68 37 -60 16 -1077 13 -1125 -4z
m1106 -99 c73 -55 72 -48 75 -472 l3 -380 -169 -168 -168 -168 -386 3 -386 3
-39 31 c-75 60 -73 42 -73 572 0 507 1 513 51 562 53 50 51 50 570 47 l486 -2
36 -28z"/>
<path d="M1011 2052 c-19 -9 -44 -30 -55 -45 -20 -28 -21 -41 -24 -505 -3
-543 -5 -527 78 -569 43 -23 51 -23 400 -23 l355 0 163 163 163 163 -3 365
c-3 409 -3 406 -78 448 -37 20 -49 21 -501 21 -422 0 -467 -2 -498 -18z m926
-78 c15 -11 38 -36 51 -54 22 -32 22 -38 22 -329 l0 -296 -152 -152 -153 -153
-295 0 c-330 0 -345 3 -385 71 -19 32 -20 52 -20 429 0 359 2 398 18 427 20
38 54 62 100 74 17 4 202 7 409 6 365 -2 377 -3 405 -23z"/>
<path d="M1074 1926 l-34 -34 0 -401 0 -401 29 -32 29 -33 298 -3 298 -3 143
143 143 143 0 283 c0 231 -3 288 -15 312 -32 61 -21 60 -458 60 l-399 0 -34
-34z m784 -46 c53 -32 62 -68 62 -244 0 -172 3 -166 -76 -166 l-44 0 0 -106
c0 -103 -1 -106 -29 -135 l-29 -29 -221 0 c-121 0 -231 4 -246 10 -50 19 -57
59 -53 302 l3 220 28 24 c28 24 30 24 253 24 298 0 293 3 294 -162 l0 -108 45
0 45 0 0 136 c0 150 -11 192 -56 213 -17 7 -124 11 -335 11 l-311 0 -29 -29
-29 -29 0 -317 c0 -348 1 -353 62 -374 19 -7 122 -11 259 -11 197 0 229 -2
229 -15 0 -13 -33 -15 -240 -15 -261 0 -277 3 -319 56 -20 26 -21 37 -21 357
l0 329 39 39 39 39 323 0 c307 0 326 -1 357 -20z"/>
<path d="M1282 1734 c-22 -15 -22 -19 -22 -243 0 -163 3 -230 12 -239 9 -9 77
-12 245 -12 219 0 233 1 243 19 6 12 10 106 10 235 0 203 -1 217 -20 236 -19
19 -33 20 -233 20 -176 0 -216 -3 -235 -16z"/>
</g>
</svg>
